<svg width="200" height="84" viewBox="0 0 200 84" fill="none" xmlns="http://www.w3.org/2000/svg">
<path d="M103.53 18.1452C103.259 17.6398 102.898 17.1884 102.464 16.8138C102.016 16.4304 101.499 16.1337 100.942 15.939C100.289 15.7214 99.6042 15.6167 98.9161 15.6293C97.9028 15.6024 96.8996 15.8368 96.003 16.3099C95.2016 16.7472 94.5169 17.3706 94.0067 18.1277C93.4805 18.9181 93.0951 19.7936 92.8677 20.7154C92.3755 22.6565 92.3755 24.6898 92.8677 26.6309C93.0951 27.5527 93.4805 28.4282 94.0067 29.2185C94.5174 29.9752 95.202 30.5985 96.003 31.0364C96.8999 31.5086 97.9029 31.743 98.9161 31.717C99.6679 31.7319 100.414 31.5857 101.105 31.2883C101.723 31.0107 102.276 30.6079 102.73 30.1056C103.192 29.5895 103.553 28.9921 103.796 28.3437C104.057 27.6492 104.226 26.9233 104.298 26.1847H107.906C107.843 27.3776 107.568 28.5496 107.092 29.6454C106.65 30.6614 106.012 31.5804 105.215 32.3503C104.415 33.1192 103.47 33.7201 102.435 34.1174C101.311 34.5417 100.117 34.7523 98.9161 34.7386C97.4542 34.7623 96.005 34.4636 94.6716 33.8638C93.4537 33.3074 92.3696 32.4959 91.4925 31.4843C90.609 30.449 89.932 29.254 89.498 27.9641C88.5695 25.1907 88.5695 22.1905 89.498 19.4172C89.932 18.1278 90.6091 16.9334 91.4925 15.8987C92.3711 14.8843 93.4546 14.0674 94.6716 13.5018C96.0027 12.8937 97.4529 12.5906 98.9161 12.6147C100.048 12.6072 101.175 12.7718 102.258 13.1028C103.258 13.4047 104.194 13.8855 105.022 14.5218C105.816 15.1358 106.475 15.9057 106.959 16.784C107.47 17.7261 107.782 18.7628 107.876 19.8301H104.181C104.031 19.2447 103.813 18.6791 103.53 18.1452Z" fill="white"/>
<path d="M113.968 18.9431V21.8999H114.028C114.138 21.4618 114.333 21.0497 114.603 20.6874C114.899 20.2835 115.248 19.9205 115.639 19.6079C116.046 19.281 116.499 19.0168 116.984 18.8241C117.464 18.6303 117.976 18.5299 118.493 18.5284C118.764 18.5235 119.036 18.5334 119.306 18.5581C119.453 18.5791 119.607 18.5984 119.765 18.6176V21.8702C119.528 21.8317 119.287 21.7967 119.04 21.7669C118.8 21.7379 118.558 21.7233 118.316 21.7232C117.759 21.7196 117.208 21.8353 116.699 22.0626C116.19 22.2944 115.741 22.6383 115.383 23.0686C114.986 23.5541 114.685 24.1112 114.496 24.7098C114.268 25.4363 114.158 26.1948 114.171 26.9563V34.2312H110.803V18.9431H113.968Z" fill="white"/>
<path d="M123.565 29.1748C123.719 29.7024 123.975 30.1946 124.319 30.6235C124.663 31.0455 125.098 31.3846 125.591 31.6155C126.167 31.8743 126.793 32.0004 127.424 31.9847C128.409 31.9847 129.202 31.773 129.804 31.3496C130.406 30.9262 130.854 30.2899 131.149 29.4407H134.344C134.027 30.9925 133.141 32.3695 131.86 33.3004C131.237 33.7502 130.541 34.0904 129.804 34.3064C129.031 34.5331 128.23 34.6463 127.424 34.6423C126.328 34.6648 125.239 34.4648 124.223 34.0545C123.327 33.6814 122.524 33.1164 121.871 32.3993C121.215 31.6621 120.722 30.7954 120.422 29.8554C120.087 28.8043 119.922 27.7062 119.934 26.6029C119.931 25.5499 120.109 24.5043 120.459 23.5113C120.785 22.5684 121.287 21.6958 121.938 20.9394C122.604 20.1647 123.434 19.547 124.367 19.1302C125.3 18.7134 126.313 18.5079 127.335 18.5284C128.46 18.5105 129.572 18.7695 130.574 19.2825C131.504 19.7647 132.317 20.4463 132.953 21.2788C133.595 22.1298 134.063 23.0997 134.328 24.1324C134.615 25.2202 134.689 26.3532 134.545 27.4689H123.313C123.312 28.0469 123.397 28.6217 123.565 29.1748ZM130.84 23.7038C130.664 23.2314 130.403 22.7955 130.07 22.4178C129.738 22.0472 129.336 21.7457 128.887 21.5307C128.403 21.2992 127.872 21.183 127.335 21.1913C126.782 21.1838 126.234 21.2891 125.724 21.501C125.255 21.6981 124.832 21.99 124.481 22.3583C124.13 22.7335 123.85 23.1692 123.654 23.6443C123.44 24.1506 123.321 24.6922 123.304 25.2417H131.177C131.14 24.7153 131.026 24.1972 130.84 23.7038V23.7038Z" fill="white"/>
<path d="M150.091 31.7187C150.199 31.8937 150.411 31.9847 150.727 31.9847H151.077C151.237 31.9823 151.395 31.9624 151.55 31.9252V34.2609C151.431 34.3012 151.279 34.3449 151.091 34.3939C150.904 34.4429 150.712 34.4884 150.514 34.5269C150.319 34.567 150.121 34.5968 149.923 34.6161C149.727 34.6353 149.559 34.6458 149.42 34.6458C148.822 34.6686 148.228 34.525 147.706 34.2312C147.251 33.9571 146.955 33.4742 146.819 32.7825C146.122 33.4484 145.274 33.9359 144.348 34.2032C143.435 34.4873 142.486 34.6353 141.53 34.6423C140.859 34.6454 140.192 34.5511 139.549 34.3624C138.947 34.1895 138.38 33.9085 137.878 33.5331C137.391 33.1652 136.996 32.6897 136.724 32.1439C136.427 31.5327 136.28 30.8599 136.295 30.1808C136.295 29.2337 136.47 28.4644 136.82 27.8731C137.146 27.3005 137.615 26.822 138.181 26.4839C138.767 26.1393 139.406 25.8946 140.072 25.7595C140.772 25.6102 141.477 25.4971 142.188 25.4201C142.766 25.3059 143.35 25.2218 143.937 25.1682C144.432 25.1292 144.922 25.0448 145.402 24.9162C145.778 24.8244 146.124 24.6363 146.406 24.3704C146.653 24.1237 146.777 23.7527 146.777 23.2611C146.793 22.8813 146.684 22.5067 146.465 22.1956C146.265 21.9245 146.001 21.7065 145.697 21.5605C145.376 21.4074 145.031 21.3075 144.677 21.2648C144.324 21.2173 143.968 21.1928 143.612 21.1913C142.665 21.1913 141.886 21.3884 141.276 21.7827C140.666 22.1769 140.317 22.7893 140.228 23.6198H136.856C136.916 22.633 137.153 21.8165 137.567 21.1703C137.964 20.5315 138.503 19.9927 139.141 19.5957C139.81 19.1905 140.547 18.9101 141.316 18.7681C142.135 18.6082 142.967 18.5285 143.801 18.5301C144.546 18.5295 145.289 18.6093 146.017 18.7681C146.712 18.9113 147.377 19.171 147.984 19.5362C148.551 19.8794 149.031 20.3503 149.384 20.9114C149.752 21.5323 149.934 22.2458 149.909 22.9672V30.8404C149.894 31.1439 149.956 31.4461 150.091 31.7187V31.7187ZM144.667 27.1785C143.918 27.2485 143.169 27.3523 142.419 27.4899C142.068 27.5479 141.721 27.6315 141.383 27.7401C141.065 27.8404 140.766 27.9904 140.496 28.1845C140.235 28.3769 140.027 28.6313 139.89 28.9246C139.733 29.272 139.657 29.6508 139.668 30.0321C139.658 30.3767 139.773 30.7134 139.994 30.9786C140.209 31.2342 140.476 31.4412 140.777 31.5858C141.096 31.7367 141.435 31.841 141.783 31.8954C142.111 31.9517 142.442 31.9815 142.774 31.9847C143.184 31.9837 143.593 31.9362 143.993 31.8429C144.426 31.7446 144.84 31.5749 145.218 31.3408C145.597 31.1095 145.925 30.8028 146.18 30.4398C146.445 30.0417 146.579 29.5706 146.563 29.0926V26.5731C145.99 26.9283 145.338 27.1362 144.665 27.1785H144.667Z" fill="white"/>
<path d="M154.571 18.9431V14.3591H157.943V18.9431H160.989V21.4572H157.943V29.6192C157.94 29.9254 157.955 30.2315 157.987 30.536C158.008 30.7653 158.078 30.9874 158.193 31.1868C158.308 31.3692 158.479 31.5092 158.681 31.5858C158.966 31.6848 159.267 31.7299 159.568 31.7187C159.806 31.7187 160.042 31.7187 160.279 31.703C160.518 31.6934 160.756 31.6588 160.989 31.5998V34.2032L159.894 34.3204C159.531 34.3609 159.165 34.3807 158.8 34.3799C158.077 34.4004 157.354 34.3156 156.655 34.1279C156.174 33.9973 155.736 33.7427 155.385 33.3896C155.07 33.0459 154.855 32.6223 154.764 32.1649C154.648 31.6104 154.583 31.0464 154.571 30.48V21.4572H152.027V18.9431H154.571Z" fill="white"/>
<path d="M166.873 13.1221V16.3116H163.501V13.1221H166.873ZM166.873 18.9483V34.2364H163.501V18.9431L166.873 18.9483Z" fill="white"/>
<path d="M172.699 18.9431L176.573 30.683H176.632L180.359 18.9431H183.848L178.377 34.2312H174.592L169.032 18.9431H172.699Z" fill="white"/>
<path d="M188.771 29.1748C188.926 29.7021 189.182 30.1941 189.525 30.6235C189.87 31.0451 190.304 31.3841 190.797 31.6155C191.373 31.8743 192 32.0004 192.631 31.9847C193.615 31.9847 194.409 31.773 195.012 31.3496C195.651 30.8717 196.122 30.2034 196.357 29.4407H199.55C199.233 30.992 198.348 32.3687 197.068 33.3004C196.444 33.7495 195.749 34.0897 195.012 34.3064C194.239 34.533 193.438 34.6461 192.632 34.6423C191.539 34.6628 190.453 34.4616 189.439 34.051C188.543 33.6788 187.741 33.1137 187.088 32.3958C186.432 31.6586 185.939 30.7919 185.639 29.8519C185.304 28.8008 185.139 27.7027 185.151 26.5994C185.147 25.5464 185.325 24.5006 185.676 23.5078C186.001 22.5646 186.503 21.6918 187.154 20.9359C187.821 20.1615 188.65 19.5438 189.583 19.1271C190.515 18.7103 191.529 18.5047 192.55 18.5249C193.675 18.5067 194.787 18.7656 195.789 19.279C196.72 19.7612 197.533 20.4428 198.17 21.2753C198.812 22.1267 199.279 23.0965 199.545 24.1289C199.83 25.2127 199.906 26.3411 199.767 27.4532H188.521C188.519 28.0363 188.603 28.6164 188.771 29.1748V29.1748ZM196.046 23.7038C195.871 23.2315 195.611 22.7956 195.278 22.4178C194.945 22.0475 194.544 21.7461 194.095 21.5307C193.61 21.2992 193.079 21.183 192.541 21.1913C191.989 21.1838 191.44 21.2891 190.93 21.501C190.461 21.6981 190.038 21.99 189.688 22.3583C189.337 22.7335 189.056 23.1692 188.86 23.6443C188.65 24.1515 188.535 24.6929 188.521 25.2417H196.394C196.353 24.7149 196.236 24.1969 196.046 23.7038V23.7038Z" fill="white"/>
<path d="M93.0584 55.2773C93.3405 55.8701 93.7649 56.384 94.2936 56.7732C94.8408 57.1704 95.4591 57.4591 96.115 57.6235C96.8453 57.8072 97.5961 57.8972 98.3492 57.8912C99.0998 57.9073 99.8483 57.8064 100.568 57.592C101.108 57.4302 101.613 57.1685 102.057 56.8204C102.417 56.5317 102.7 56.1585 102.881 55.7339C103.046 55.3398 103.131 54.9171 103.133 54.4899C103.133 53.6291 102.937 52.994 102.547 52.5846C102.193 52.1994 101.754 51.9027 101.264 51.7185C100.347 51.39 99.4122 51.1114 98.4647 50.884C97.3998 50.6215 96.0852 50.2804 94.5211 49.8605C93.6668 49.6566 92.8493 49.3214 92.0979 48.8667C91.5069 48.5064 90.9859 48.0423 90.56 47.4967C90.1921 47.0171 89.9185 46.4721 89.7534 45.8906C89.5949 45.3269 89.5148 44.744 89.5154 44.1585C89.4894 43.1314 89.7351 42.1156 90.2275 41.2139C90.6944 40.3941 91.3388 39.6893 92.1136 39.1511C92.9218 38.5924 93.8229 38.1819 94.7748 37.9386C95.7566 37.6775 96.7682 37.5452 97.7841 37.5449C98.9146 37.5377 100.04 37.6915 101.128 38.0016C102.122 38.2809 103.054 38.7437 103.878 39.3663C104.665 39.9683 105.308 40.7374 105.762 41.618C106.244 42.5797 106.485 43.6445 106.462 44.7201H102.499C102.394 43.2714 101.898 42.2479 101.01 41.6495C100.123 41.0512 98.9954 40.7566 97.6284 40.766C97.1502 40.7674 96.6733 40.8148 96.2042 40.9077C95.7385 40.9949 95.2893 41.1542 94.8728 41.3801C94.4752 41.5978 94.1337 41.9051 93.8755 42.2776C93.5988 42.6972 93.46 43.1926 93.4783 43.6948C93.4783 44.4926 93.7268 45.1173 94.2236 45.5687C94.7855 46.0549 95.4519 46.4051 96.171 46.5922C96.2573 46.6132 96.5903 46.7024 97.17 46.8599C97.7497 47.0173 98.3994 47.1923 99.1191 47.3848L101.219 47.9376C101.904 48.1161 102.396 48.2473 102.692 48.3313C103.38 48.5393 104.031 48.8584 104.616 49.2761C105.147 49.6556 105.612 50.1182 105.995 50.646C106.358 51.1484 106.637 51.707 106.819 52.2994C106.996 52.8705 107.087 53.465 107.089 54.063C107.089 55.3228 106.83 56.3988 106.312 57.2911C105.809 58.1626 105.113 58.9068 104.277 59.4658C103.396 60.0497 102.419 60.4715 101.39 60.7116C99.1073 61.2642 96.7225 61.2372 94.4528 60.6328C93.3764 60.3486 92.3659 59.8565 91.4785 59.1841C90.6187 58.5189 89.9237 57.6646 89.4472 56.6874C88.9398 55.6692 88.6756 54.4672 88.6546 53.0815H92.614C92.5944 53.8376 92.7463 54.5883 93.0584 55.2773V55.2773Z" fill="white"/>
<path d="M111.118 44.2844V39.403H114.729V44.2844H117.992V46.9614H114.729V55.6552C114.726 55.9812 114.742 56.3072 114.776 56.6315C114.797 56.8784 114.873 57.1175 114.999 57.3313C115.122 57.527 115.306 57.6764 115.523 57.7565C115.829 57.8626 116.151 57.9107 116.473 57.8982C116.727 57.8982 116.981 57.8982 117.233 57.8824C117.49 57.8715 117.745 57.8346 117.994 57.7722V60.5366L116.822 60.6643C116.432 60.7062 116.041 60.7267 115.649 60.7256C114.875 60.7483 114.101 60.6581 113.352 60.4579C112.837 60.3185 112.367 60.0471 111.989 59.6705C111.652 59.3039 111.422 58.8519 111.324 58.3636C111.201 57.7728 111.133 57.1719 111.12 56.5685V46.9614H108.392V44.2844H111.118Z" fill="white"/>
<path d="M131.426 60.5698V58.2953H131.363C130.905 59.128 130.217 59.8117 129.382 60.2654C128.57 60.7413 127.647 60.9964 126.705 61.0055C124.55 61.0055 122.992 60.4748 122.032 59.4133C121.072 58.3519 120.591 56.751 120.59 54.6107V44.2844H124.202V54.2695C124.202 55.6972 124.476 56.7049 125.026 57.2928C125.575 57.8807 126.346 58.1723 127.339 58.1676C127.99 58.1876 128.637 58.0683 129.239 57.8177C129.717 57.6084 130.14 57.2903 130.474 56.8887C130.802 56.4784 131.035 56.0003 131.156 55.489C131.297 54.9118 131.366 54.3195 131.363 53.7254V44.2775H134.974V60.5628L131.426 60.5698Z" fill="white"/>
<path d="M150.783 60.5698V58.3636H150.72C150.275 59.2703 149.522 59.9899 148.596 60.3949C147.668 60.8047 146.664 61.0146 145.65 61.0107C144.489 61.037 143.337 60.8057 142.277 60.3336C141.35 59.9081 140.532 59.2775 139.885 58.4896C139.231 57.6751 138.746 56.7383 138.459 55.7339C138.135 54.623 137.974 53.4707 137.983 52.3134C137.983 50.8437 138.184 49.5735 138.585 48.5028C138.931 47.5198 139.476 46.6187 140.186 45.8556C140.821 45.183 141.598 44.6611 142.46 44.3282C143.295 44.0068 144.181 43.8413 145.074 43.8401C145.595 43.8413 146.115 43.8887 146.628 43.9818C147.151 44.0747 147.661 44.228 148.148 44.4384C148.63 44.6466 149.083 44.9166 149.496 45.2415C149.903 45.5622 150.251 45.9511 150.524 46.391H150.587V38.0803H154.2V60.5698H150.783ZM141.86 54.6474C142.027 55.2897 142.306 55.8975 142.684 56.4425C143.066 56.9962 143.581 57.445 144.182 57.7477C144.783 58.0503 145.45 58.1971 146.122 58.1746C146.847 58.1942 147.563 58.0202 148.197 57.6707C148.768 57.3449 149.256 56.8923 149.623 56.348C150 55.7849 150.279 55.162 150.447 54.5057C150.627 53.8203 150.718 53.1147 150.717 52.4062C150.717 50.6006 150.309 49.1933 149.492 48.1843C148.676 47.1754 147.572 46.6715 146.18 46.6727C145.433 46.6497 144.694 46.8312 144.042 47.1976C143.47 47.5349 142.983 47.998 142.616 48.5518C142.239 49.1286 141.97 49.7696 141.824 50.4431C141.665 51.1512 141.585 51.8747 141.586 52.6004C141.589 53.2919 141.682 53.9801 141.864 54.6474H141.86Z" fill="white"/>
<path d="M161.839 38.0803V41.4816H158.228V38.0803H161.839ZM161.839 44.2845V60.5698H158.228V44.2845H161.839Z" fill="white"/>
<path d="M169.777 60.3616C168.794 59.9603 167.908 59.3537 167.179 58.5823C166.456 57.8028 165.905 56.88 165.562 55.8739C164.823 53.6344 164.823 51.2164 165.562 48.9769C165.905 47.97 166.456 47.0466 167.179 46.2668C167.908 45.4954 168.794 44.8887 169.777 44.4874C172.031 43.627 174.522 43.627 176.776 44.4874C177.759 44.8887 178.644 45.4954 179.374 46.2668C180.097 47.0466 180.648 47.97 180.99 48.9769C181.73 51.2164 181.73 53.6344 180.99 55.8739C180.647 56.88 180.097 57.8028 179.374 58.5823C178.645 59.3535 177.76 59.9601 176.777 60.3616C174.524 61.2244 172.032 61.2244 169.779 60.3616H169.777ZM175.376 57.669C175.955 57.3435 176.453 56.8914 176.833 56.3463C177.219 55.7863 177.504 55.1627 177.673 54.5039C178.03 53.1359 178.03 51.6992 177.673 50.3311C177.508 49.6708 177.224 49.0464 176.833 48.4888C176.45 47.95 175.953 47.503 175.376 47.1801C174.728 46.8488 174.012 46.6761 173.284 46.6761C172.557 46.6761 171.84 46.8488 171.193 47.1801C170.616 47.503 170.118 47.95 169.735 48.4888C169.345 49.0461 169.061 49.6707 168.897 50.3311C168.538 51.6989 168.538 53.1362 168.897 54.5039C169.065 55.1628 169.349 55.7866 169.735 56.3463C170.115 56.8914 170.613 57.3435 171.193 57.669C171.84 58.0002 172.557 58.1729 173.284 58.1729C174.012 58.1729 174.728 58.0002 175.376 57.669V57.669Z" fill="white"/>
<path d="M188.484 57.5448C189.245 57.981 190.111 58.1989 190.988 58.1746C191.374 58.1714 191.761 58.1451 192.144 58.0959C192.563 58.0476 192.975 57.9471 193.369 57.7967C193.729 57.663 194.051 57.4411 194.303 57.1511C194.556 56.8363 194.675 56.4349 194.636 56.0331C194.633 55.8197 194.586 55.6092 194.499 55.4143C194.412 55.2194 194.287 55.0442 194.13 54.8994C193.773 54.5861 193.356 54.3481 192.905 54.1995C192.353 54.0056 191.787 53.8529 191.212 53.7429C190.577 53.6169 189.936 53.4804 189.287 53.3334C188.628 53.1909 187.977 53.0122 187.338 52.7981C186.739 52.6005 186.174 52.3138 185.66 51.9478C185.163 51.59 184.756 51.1208 184.472 50.5778C184.156 49.9373 184.004 49.2287 184.028 48.515C184.001 47.7239 184.228 46.945 184.677 46.293C185.112 45.6937 185.675 45.1988 186.325 44.8443C187.017 44.4677 187.766 44.207 188.542 44.0727C189.31 43.9301 190.089 43.8563 190.871 43.8523C191.686 43.849 192.5 43.9389 193.295 44.12C194.04 44.2855 194.75 44.5785 195.395 44.986C196.02 45.3865 196.549 45.9185 196.947 46.545C197.381 47.2464 197.647 48.0386 197.724 48.8597H193.953C193.784 47.9989 193.388 47.4215 192.765 47.1276C192.094 46.8235 191.364 46.6729 190.627 46.6867C190.325 46.6899 190.024 46.711 189.725 46.7497C189.388 46.7884 189.058 46.8677 188.741 46.9859C188.448 47.0939 188.183 47.2661 187.964 47.4897C187.748 47.725 187.634 48.0366 187.648 48.3558C187.641 48.5574 187.678 48.7581 187.758 48.9435C187.837 49.1289 187.957 49.2945 188.108 49.4283C188.462 49.7289 188.871 49.9587 189.312 50.1054C189.865 50.2991 190.431 50.4518 191.007 50.5621C191.64 50.688 192.295 50.8245 192.972 50.9715C193.626 51.1184 194.268 51.2969 194.896 51.5069C195.501 51.7025 196.073 51.9893 196.592 52.3572C197.088 52.714 197.499 53.1765 197.795 53.7114C198.12 54.3324 198.278 55.0267 198.256 55.7269C198.282 56.5915 198.05 57.4443 197.589 58.1764C197.147 58.8477 196.556 59.4081 195.862 59.814C195.13 60.2445 194.333 60.5529 193.502 60.7273C192.66 60.9151 191.8 61.0107 190.937 61.0125C189.97 61.0198 189.006 60.9022 188.069 60.6626C187.252 60.4595 186.48 60.1033 185.795 59.6128C185.159 59.15 184.639 58.5464 184.274 57.8492C183.887 57.0716 183.686 56.2143 183.688 55.3455H187.3C187.393 56.3918 187.788 57.1249 188.484 57.5448Z" fill="white"/>
<path d="M41.9732 3.49923C50.8463 3.51101 59.4429 6.58801 66.3081 12.2095C73.1733 17.831 77.8855 25.6517 79.6472 34.3481C81.409 43.0446 80.1121 52.0827 75.9761 59.9328C71.84 67.783 65.1188 73.9631 56.9499 77.4274C47.5827 81.2076 37.1049 81.1541 27.7768 77.2785C18.4486 73.4029 11.0178 66.0157 7.08724 56.7106C3.15667 47.4055 3.04139 36.9282 6.76628 27.5389C10.4912 18.1496 17.7577 10.6007 26.9983 6.52081C31.7359 4.51663 36.8291 3.48893 41.9732 3.49923V3.49923ZM41.9732 0C18.7926 0 0 18.7926 0 41.9732C0 65.1538 18.7926 83.9482 41.9732 83.9482C65.1538 83.9482 83.9482 65.1556 83.9482 41.9732C83.9482 18.7908 65.1556 0 41.9732 0Z" fill="white"/>
<path d="M64.7987 22.2201C64.5765 21.741 64.2253 21.3332 63.7844 21.0425C63.3435 20.7517 62.8304 20.5896 62.3025 20.5741C61.7746 20.5587 61.2528 20.6906 60.7957 20.955C60.3385 21.2195 59.9641 21.606 59.7143 22.0714C59.5073 22.4636 59.4026 22.9017 59.4099 23.3451V40.5438V53.4314C59.4178 54.2938 59.2537 55.1492 58.927 55.9474C58.3043 57.4652 57.2434 58.763 55.8798 59.6752C54.5162 60.5874 52.9117 61.0726 51.2712 61.0688C49.6306 61.0651 48.0283 60.5725 46.6689 59.6541C45.3095 58.7357 44.2546 57.433 43.6389 55.9124C43.3231 55.1256 43.165 54.2844 43.1735 53.4367V52.3869L37.5537 52.6511C37.5303 55.265 38.2637 57.8298 39.6655 60.0362C40.9303 62.0171 42.6803 63.6419 44.7494 64.7566C46.8184 65.8712 49.138 66.4387 51.488 66.4053C53.838 66.3718 56.1405 65.7384 58.1769 64.5653C60.2134 63.3921 61.9164 61.7181 63.1243 59.702C64.3929 57.575 65.0515 55.1398 65.0279 52.6633V23.3293C65.0351 22.9471 64.9568 22.5681 64.7987 22.2201V22.2201Z" fill="white"/>
<path d="M29.4302 20.7102H29.194C26.9203 20.7601 24.6936 21.3668 22.7088 22.4771C20.724 23.5874 19.0417 25.1674 17.8093 27.0788C16.4076 29.2864 15.6748 31.8525 15.6993 34.4674V56.495H21.3173V50.2314H37.5537V53.1707H43.1717V34.4499C43.1956 31.9728 42.537 29.537 41.2681 27.4094C40.0324 25.3733 38.2955 23.688 36.223 22.5142C34.1506 21.3405 31.8119 20.7176 29.4302 20.7049V20.7102ZM21.3173 44.6151V33.6801C21.3096 32.8329 21.4677 31.9925 21.7827 31.2061C22.3957 29.7168 23.4273 28.4371 24.7526 27.5219C26.0779 26.6068 27.6401 26.0955 29.25 26.05H29.425C31.0602 26.0602 32.6563 26.5511 34.0146 27.4617C35.3728 28.3723 36.4333 29.6623 37.0638 31.1711C37.3905 31.9693 37.5546 32.8246 37.5467 33.6871V44.6151H21.3173Z" fill="white"/>
</svg>
